<mxfile host="app.diagrams.net" modified="2023-03-15T06:50:35.135Z" agent="5.0 (Windows NT 10.0; Win64; x64) AppleWebKit/537.36 (KHTML, like Gecko) Chrome/87.0.4280.88 Safari/537.36" etag="4lImwM-f42r7dmZc0V-i" version="20.5.3" type="github">
  <diagram id="txx3bHHGOBFFJghas2Wa" name="Страница 1">
    <mxGraphModel dx="1673" dy="896" grid="1" gridSize="10" guides="1" tooltips="1" connect="1" arrows="1" fold="1" page="1" pageScale="1" pageWidth="1654" pageHeight="1169" math="0" shadow="0">
      <root>
        <mxCell id="0" />
        <mxCell id="1" parent="0" />
        <mxCell id="uhG8UHSYETovZm9aPu19-5" value="" style="edgeStyle=orthogonalEdgeStyle;rounded=0;orthogonalLoop=1;jettySize=auto;html=1;fontColor=#66FF66;" edge="1" parent="1" source="AzMbnHq6-pzzuQCgAMzn-20" target="uhG8UHSYETovZm9aPu19-4">
          <mxGeometry relative="1" as="geometry" />
        </mxCell>
        <mxCell id="AzMbnHq6-pzzuQCgAMzn-20" value="Начало" style="rounded=1;whiteSpace=wrap;html=1;arcSize=32;" parent="1" vertex="1">
          <mxGeometry x="525" y="20" width="120" height="60" as="geometry" />
        </mxCell>
        <mxCell id="AzMbnHq6-pzzuQCgAMzn-21" value="Конец" style="rounded=1;whiteSpace=wrap;html=1;arcSize=32;" parent="1" vertex="1">
          <mxGeometry x="510" y="730" width="120" height="60" as="geometry" />
        </mxCell>
        <mxCell id="uhG8UHSYETovZm9aPu19-8" value="в коде/ из запроса" style="edgeStyle=orthogonalEdgeStyle;rounded=0;orthogonalLoop=1;jettySize=auto;html=1;fontColor=#0000FF;entryX=0.5;entryY=0;entryDx=0;entryDy=0;" edge="1" parent="1" source="uhG8UHSYETovZm9aPu19-4" target="uhG8UHSYETovZm9aPu19-14">
          <mxGeometry x="-0.1709" relative="1" as="geometry">
            <mxPoint x="349.5" y="180" as="targetPoint" />
            <mxPoint as="offset" />
          </mxGeometry>
        </mxCell>
        <mxCell id="uhG8UHSYETovZm9aPu19-10" value="в БД; таб. Ref" style="edgeStyle=orthogonalEdgeStyle;rounded=0;orthogonalLoop=1;jettySize=auto;html=1;fontColor=#0000FF;entryX=0.5;entryY=0;entryDx=0;entryDy=0;" edge="1" parent="1" source="uhG8UHSYETovZm9aPu19-4" target="uhG8UHSYETovZm9aPu19-48">
          <mxGeometry x="-0.8129" relative="1" as="geometry">
            <mxPoint x="799.5" y="180" as="targetPoint" />
            <mxPoint as="offset" />
          </mxGeometry>
        </mxCell>
        <mxCell id="uhG8UHSYETovZm9aPu19-4" value="Требуемый GUID находится" style="rhombus;whiteSpace=wrap;html=1;rounded=0;arcSize=0;fontStyle=1;verticalAlign=middle;horizontal=1;" vertex="1" parent="1">
          <mxGeometry x="487" y="140" width="195" height="80" as="geometry" />
        </mxCell>
        <mxCell id="uhG8UHSYETovZm9aPu19-6" value="&lt;h1&gt;&lt;font color=&quot;#0000ff&quot;&gt;MetaType&lt;/font&gt;&lt;/h1&gt;&lt;p&gt;&lt;font color=&quot;#4d4d4d&quot;&gt;Можно указать:&lt;/font&gt;&lt;/p&gt;&lt;p&gt;&lt;/p&gt;&lt;ul&gt;&lt;li&gt;&lt;font color=&quot;#4d4d4d&quot;&gt;с помощью Type&lt;/font&gt;&lt;/li&gt;&lt;li&gt;&lt;font color=&quot;#4d4d4d&quot;&gt;строкой TypeAndName&lt;/font&gt;&lt;/li&gt;&lt;/ul&gt;&lt;p&gt;&lt;/p&gt;" style="text;html=1;strokeColor=none;fillColor=none;spacing=5;spacingTop=-20;whiteSpace=wrap;overflow=hidden;rounded=0;fontColor=#66FF66;" vertex="1" parent="1">
          <mxGeometry x="920" y="20" width="190" height="120" as="geometry" />
        </mxCell>
        <mxCell id="uhG8UHSYETovZm9aPu19-11" value="тип свойства: string" style="text;html=1;strokeColor=none;fillColor=none;align=center;verticalAlign=middle;whiteSpace=wrap;rounded=0;fontColor=#009900;fontStyle=1" vertex="1" parent="1">
          <mxGeometry x="350" y="140" width="130" height="30" as="geometry" />
        </mxCell>
        <mxCell id="uhG8UHSYETovZm9aPu19-12" value="тип свойства: IRef..." style="text;html=1;strokeColor=none;fillColor=none;align=center;verticalAlign=middle;whiteSpace=wrap;rounded=0;fontColor=#009900;fontStyle=1" vertex="1" parent="1">
          <mxGeometry x="682" y="140" width="130" height="30" as="geometry" />
        </mxCell>
        <mxCell id="uhG8UHSYETovZm9aPu19-19" value="multy type" style="edgeStyle=orthogonalEdgeStyle;orthogonalLoop=1;jettySize=auto;html=1;fontColor=#009900;rounded=0;" edge="1" parent="1" source="uhG8UHSYETovZm9aPu19-14" target="uhG8UHSYETovZm9aPu19-18">
          <mxGeometry x="-0.6" relative="1" as="geometry">
            <mxPoint as="offset" />
          </mxGeometry>
        </mxCell>
        <mxCell id="uhG8UHSYETovZm9aPu19-27" value="single type" style="edgeStyle=orthogonalEdgeStyle;orthogonalLoop=1;jettySize=auto;html=1;fontColor=#009900;rounded=0;exitX=0;exitY=0.5;exitDx=0;exitDy=0;" edge="1" parent="1" source="uhG8UHSYETovZm9aPu19-14" target="AzMbnHq6-pzzuQCgAMzn-21">
          <mxGeometry x="-0.9263" relative="1" as="geometry">
            <mxPoint x="120" y="270" as="sourcePoint" />
            <Array as="points">
              <mxPoint x="50" y="265" />
              <mxPoint x="50" y="670" />
              <mxPoint x="570" y="670" />
            </Array>
            <mxPoint as="offset" />
          </mxGeometry>
        </mxCell>
        <mxCell id="uhG8UHSYETovZm9aPu19-14" value="Тип реквизита?" style="rhombus;whiteSpace=wrap;html=1;rounded=0;arcSize=0;fontStyle=0;verticalAlign=middle;horizontal=1;" vertex="1" parent="1">
          <mxGeometry x="120" y="240" width="130" height="50" as="geometry" />
        </mxCell>
        <mxCell id="uhG8UHSYETovZm9aPu19-30" value="&lt;font color=&quot;#0000ff&quot;&gt;1:1&lt;/font&gt;" style="edgeStyle=orthogonalEdgeStyle;rounded=0;orthogonalLoop=1;jettySize=auto;html=1;fontColor=#000000;entryX=0.5;entryY=0;entryDx=0;entryDy=0;" edge="1" parent="1" source="uhG8UHSYETovZm9aPu19-17" target="uhG8UHSYETovZm9aPu19-29">
          <mxGeometry x="-0.7811" relative="1" as="geometry">
            <mxPoint as="offset" />
          </mxGeometry>
        </mxCell>
        <mxCell id="uhG8UHSYETovZm9aPu19-46" value="X:X" style="edgeStyle=orthogonalEdgeStyle;rounded=0;orthogonalLoop=1;jettySize=auto;html=1;fontColor=#0000FF;exitX=0.5;exitY=1;exitDx=0;exitDy=0;" edge="1" parent="1" source="uhG8UHSYETovZm9aPu19-17" target="uhG8UHSYETovZm9aPu19-45">
          <mxGeometry x="-0.8545" y="-1" relative="1" as="geometry">
            <mxPoint as="offset" />
          </mxGeometry>
        </mxCell>
        <mxCell id="uhG8UHSYETovZm9aPu19-17" value="&lt;font color=&quot;#000000&quot;&gt;Отношения &lt;b&gt;MetaType:Entity&lt;/b&gt;&lt;/font&gt;" style="rhombus;whiteSpace=wrap;html=1;rounded=0;fontColor=#009900;fillColor=none;" vertex="1" parent="1">
          <mxGeometry x="670" y="225" width="203" height="80" as="geometry" />
        </mxCell>
        <mxCell id="uhG8UHSYETovZm9aPu19-28" style="edgeStyle=orthogonalEdgeStyle;rounded=0;orthogonalLoop=1;jettySize=auto;html=1;exitX=0.5;exitY=1;exitDx=0;exitDy=0;entryX=0.5;entryY=0;entryDx=0;entryDy=0;fontColor=#009900;" edge="1" parent="1" source="uhG8UHSYETovZm9aPu19-18" target="AzMbnHq6-pzzuQCgAMzn-21">
          <mxGeometry relative="1" as="geometry">
            <Array as="points">
              <mxPoint x="185" y="670" />
              <mxPoint x="570" y="670" />
            </Array>
          </mxGeometry>
        </mxCell>
        <mxCell id="uhG8UHSYETovZm9aPu19-18" value="Применить атрибут &lt;b&gt;&lt;font color=&quot;#ff0000&quot;&gt;MultyType&lt;/font&gt;&lt;/b&gt; с &lt;font color=&quot;#0000ff&quot;&gt;&lt;b&gt;MetaType&lt;/b&gt;&lt;/font&gt;" style="whiteSpace=wrap;html=1;rounded=0;arcSize=0;fontStyle=0;strokeColor=#FF0000;" vertex="1" parent="1">
          <mxGeometry x="112.5" y="370" width="145" height="60" as="geometry" />
        </mxCell>
        <mxCell id="uhG8UHSYETovZm9aPu19-32" value="в коде" style="edgeStyle=orthogonalEdgeStyle;rounded=0;orthogonalLoop=1;jettySize=auto;html=1;fontColor=#0000FF;exitX=0;exitY=0.5;exitDx=0;exitDy=0;" edge="1" parent="1" source="uhG8UHSYETovZm9aPu19-29" target="uhG8UHSYETovZm9aPu19-31">
          <mxGeometry x="-0.7211" relative="1" as="geometry">
            <mxPoint as="offset" />
          </mxGeometry>
        </mxCell>
        <mxCell id="uhG8UHSYETovZm9aPu19-34" value="из запроса" style="edgeStyle=orthogonalEdgeStyle;rounded=0;orthogonalLoop=1;jettySize=auto;html=1;fontColor=#0000FF;exitX=1;exitY=0.5;exitDx=0;exitDy=0;entryX=0.5;entryY=0;entryDx=0;entryDy=0;" edge="1" parent="1" source="uhG8UHSYETovZm9aPu19-29" target="uhG8UHSYETovZm9aPu19-38">
          <mxGeometry x="-0.6024" relative="1" as="geometry">
            <mxPoint x="740" y="410" as="targetPoint" />
            <mxPoint x="1" as="offset" />
          </mxGeometry>
        </mxCell>
        <mxCell id="uhG8UHSYETovZm9aPu19-29" value="&lt;font color=&quot;#000000&quot;&gt;Требуемый ID находится&lt;/font&gt;" style="rhombus;whiteSpace=wrap;html=1;rounded=0;fontColor=#009900;fillColor=none;" vertex="1" parent="1">
          <mxGeometry x="410" y="290" width="203" height="80" as="geometry" />
        </mxCell>
        <mxCell id="uhG8UHSYETovZm9aPu19-35" style="edgeStyle=orthogonalEdgeStyle;rounded=0;orthogonalLoop=1;jettySize=auto;html=1;exitX=0.5;exitY=1;exitDx=0;exitDy=0;entryX=0.5;entryY=0;entryDx=0;entryDy=0;fontColor=#0000FF;" edge="1" parent="1" source="uhG8UHSYETovZm9aPu19-31" target="AzMbnHq6-pzzuQCgAMzn-21">
          <mxGeometry relative="1" as="geometry">
            <Array as="points">
              <mxPoint x="345" y="670" />
              <mxPoint x="570" y="670" />
            </Array>
          </mxGeometry>
        </mxCell>
        <mxCell id="uhG8UHSYETovZm9aPu19-31" value="&lt;font color=&quot;#000000&quot;&gt;В коде (процедура RoutineAsync) установить свойство (его тип IRef...), c указанием ID и &lt;/font&gt;&lt;font color=&quot;#0000ff&quot;&gt;&lt;b&gt;MetaType&lt;/b&gt;&lt;/font&gt;" style="whiteSpace=wrap;html=1;fillColor=#fff2cc;rounded=0;strokeColor=#d6b656;" vertex="1" parent="1">
          <mxGeometry x="240" y="494" width="210" height="72.5" as="geometry" />
        </mxCell>
        <mxCell id="uhG8UHSYETovZm9aPu19-37" value="single type" style="edgeStyle=orthogonalEdgeStyle;orthogonalLoop=1;jettySize=auto;html=1;fontColor=#009900;rounded=0;exitX=0;exitY=0.5;exitDx=0;exitDy=0;entryX=0.5;entryY=0;entryDx=0;entryDy=0;" edge="1" parent="1" source="uhG8UHSYETovZm9aPu19-38" target="uhG8UHSYETovZm9aPu19-40">
          <mxGeometry x="-0.4336" relative="1" as="geometry">
            <mxPoint x="621" y="444" as="sourcePoint" />
            <mxPoint x="530" y="470" as="targetPoint" />
            <Array as="points">
              <mxPoint x="540" y="425" />
            </Array>
            <mxPoint as="offset" />
          </mxGeometry>
        </mxCell>
        <mxCell id="uhG8UHSYETovZm9aPu19-54" value="&lt;span style=&quot;color: rgb(0, 153, 0);&quot;&gt;multy type&lt;/span&gt;" style="edgeStyle=orthogonalEdgeStyle;rounded=0;orthogonalLoop=1;jettySize=auto;html=1;exitX=0.5;exitY=1;exitDx=0;exitDy=0;entryX=0.5;entryY=0;entryDx=0;entryDy=0;fontColor=#00CC00;" edge="1" parent="1" source="uhG8UHSYETovZm9aPu19-38" target="uhG8UHSYETovZm9aPu19-42">
          <mxGeometry x="-0.3043" relative="1" as="geometry">
            <Array as="points">
              <mxPoint x="725" y="480" />
              <mxPoint x="725" y="480" />
            </Array>
            <mxPoint y="-1" as="offset" />
          </mxGeometry>
        </mxCell>
        <mxCell id="uhG8UHSYETovZm9aPu19-38" value="Тип реквизита?" style="rhombus;whiteSpace=wrap;html=1;rounded=0;arcSize=0;fontStyle=0;verticalAlign=middle;horizontal=1;" vertex="1" parent="1">
          <mxGeometry x="660" y="400" width="130" height="50" as="geometry" />
        </mxCell>
        <mxCell id="uhG8UHSYETovZm9aPu19-41" style="edgeStyle=orthogonalEdgeStyle;rounded=0;orthogonalLoop=1;jettySize=auto;html=1;exitX=0.5;exitY=1;exitDx=0;exitDy=0;entryX=0.5;entryY=0;entryDx=0;entryDy=0;fontColor=#000000;" edge="1" parent="1" source="uhG8UHSYETovZm9aPu19-40" target="AzMbnHq6-pzzuQCgAMzn-21">
          <mxGeometry relative="1" as="geometry">
            <Array as="points">
              <mxPoint x="540" y="670" />
              <mxPoint x="570" y="670" />
            </Array>
          </mxGeometry>
        </mxCell>
        <mxCell id="uhG8UHSYETovZm9aPu19-40" value="&lt;font color=&quot;#000000&quot;&gt;Применить атрибут с &lt;/font&gt;&lt;b&gt;MetaType&lt;/b&gt;" style="rounded=0;whiteSpace=wrap;html=1;fontColor=#0000FF;fillColor=none;strokeColor=#FF0000;" vertex="1" parent="1">
          <mxGeometry x="480" y="476.25" width="120" height="60" as="geometry" />
        </mxCell>
        <mxCell id="uhG8UHSYETovZm9aPu19-43" style="edgeStyle=orthogonalEdgeStyle;rounded=0;orthogonalLoop=1;jettySize=auto;html=1;exitX=0.5;exitY=1;exitDx=0;exitDy=0;entryX=0.5;entryY=0;entryDx=0;entryDy=0;fontColor=#FF0000;" edge="1" parent="1" source="uhG8UHSYETovZm9aPu19-42" target="AzMbnHq6-pzzuQCgAMzn-21">
          <mxGeometry relative="1" as="geometry">
            <Array as="points">
              <mxPoint x="725" y="670" />
              <mxPoint x="570" y="670" />
            </Array>
          </mxGeometry>
        </mxCell>
        <mxCell id="uhG8UHSYETovZm9aPu19-42" value="Применить атрибут &lt;b&gt;&lt;font color=&quot;#ff0000&quot;&gt;MultyType&lt;/font&gt;&lt;/b&gt;, указать &lt;b&gt;&lt;font color=&quot;#0000ff&quot;&gt;MetaType&lt;/font&gt;&lt;/b&gt;" style="rounded=0;whiteSpace=wrap;html=1;fontColor=#000000;fillColor=none;strokeColor=#FF0000;" vertex="1" parent="1">
          <mxGeometry x="665" y="536.25" width="120" height="60" as="geometry" />
        </mxCell>
        <mxCell id="uhG8UHSYETovZm9aPu19-47" style="edgeStyle=orthogonalEdgeStyle;rounded=0;orthogonalLoop=1;jettySize=auto;html=1;exitX=0.5;exitY=1;exitDx=0;exitDy=0;fontColor=#00CC00;" edge="1" parent="1" source="uhG8UHSYETovZm9aPu19-45">
          <mxGeometry relative="1" as="geometry">
            <mxPoint x="570" y="730" as="targetPoint" />
            <Array as="points">
              <mxPoint x="970" y="670" />
              <mxPoint x="570" y="670" />
            </Array>
          </mxGeometry>
        </mxCell>
        <mxCell id="uhG8UHSYETovZm9aPu19-45" value="&lt;font color=&quot;#ffffff&quot;&gt;Применить алгоритм для &quot;1:1&quot;, но где в блоках с передачей&lt;/font&gt;&lt;font color=&quot;#666666&quot;&gt; &lt;/font&gt;&lt;font color=&quot;#0000ff&quot;&gt;&lt;b&gt;MetatType&lt;/b&gt;&lt;/font&gt;&lt;font color=&quot;#ffffff&quot;&gt;, добавлять&lt;/font&gt;&lt;font color=&quot;#666666&quot;&gt; &lt;/font&gt;&lt;font color=&quot;#00cc00&quot;&gt;&lt;b&gt;Entity&lt;/b&gt;&lt;/font&gt;" style="whiteSpace=wrap;html=1;fillColor=#4D4D4D;rounded=0;strokeColor=#9673a6;" vertex="1" parent="1">
          <mxGeometry x="880" y="450" width="180" height="60" as="geometry" />
        </mxCell>
        <mxCell id="uhG8UHSYETovZm9aPu19-49" value="Статически в коде" style="edgeStyle=orthogonalEdgeStyle;rounded=0;orthogonalLoop=1;jettySize=auto;html=1;exitX=0;exitY=0.5;exitDx=0;exitDy=0;entryX=1;entryY=0.5;entryDx=0;entryDy=0;fontColor=#0000FF;" edge="1" parent="1" source="uhG8UHSYETovZm9aPu19-48" target="uhG8UHSYETovZm9aPu19-17">
          <mxGeometry x="-0.1083" relative="1" as="geometry">
            <mxPoint x="-1" as="offset" />
          </mxGeometry>
        </mxCell>
        <mxCell id="uhG8UHSYETovZm9aPu19-51" value="Динамически" style="edgeStyle=orthogonalEdgeStyle;rounded=0;orthogonalLoop=1;jettySize=auto;html=1;fontColor=#0000FF;" edge="1" parent="1" source="uhG8UHSYETovZm9aPu19-48" target="uhG8UHSYETovZm9aPu19-50">
          <mxGeometry x="-0.6804" relative="1" as="geometry">
            <mxPoint as="offset" />
          </mxGeometry>
        </mxCell>
        <mxCell id="uhG8UHSYETovZm9aPu19-48" value="&lt;b style=&quot;&quot;&gt;&lt;font color=&quot;#0000ff&quot;&gt;MetaType &lt;/font&gt;&lt;/b&gt;&lt;font color=&quot;#000000&quot;&gt;и &lt;/font&gt;&lt;b&gt;Entity&amp;nbsp;&lt;/b&gt;&lt;font style=&quot;&quot; color=&quot;#000000&quot;&gt;определяются:&lt;/font&gt;" style="rhombus;whiteSpace=wrap;html=1;rounded=0;fontColor=#00CC00;fillColor=none;" vertex="1" parent="1">
          <mxGeometry x="1030" y="225" width="240" height="80" as="geometry" />
        </mxCell>
        <mxCell id="uhG8UHSYETovZm9aPu19-52" style="edgeStyle=orthogonalEdgeStyle;rounded=0;orthogonalLoop=1;jettySize=auto;html=1;exitX=0.5;exitY=1;exitDx=0;exitDy=0;entryX=0.5;entryY=0;entryDx=0;entryDy=0;fontColor=#00CC00;" edge="1" parent="1" source="uhG8UHSYETovZm9aPu19-50" target="AzMbnHq6-pzzuQCgAMzn-21">
          <mxGeometry relative="1" as="geometry">
            <Array as="points">
              <mxPoint x="1150" y="670" />
              <mxPoint x="570" y="670" />
            </Array>
          </mxGeometry>
        </mxCell>
        <mxCell id="uhG8UHSYETovZm9aPu19-50" value="&lt;font color=&quot;#000000&quot;&gt;В коде (процедура RoutineAsync) установить свойство (его тип IRef...), c указанием ID и&amp;nbsp;&lt;/font&gt;&lt;b style=&quot;color: rgb(0, 0, 255);&quot;&gt;MetaType&lt;/b&gt;&lt;font color=&quot;#000000&quot;&gt;, &lt;/font&gt;&lt;b style=&quot;&quot;&gt;Entity&lt;/b&gt;" style="whiteSpace=wrap;html=1;fillColor=#fff2cc;rounded=0;strokeColor=#d6b656;" vertex="1" parent="1">
          <mxGeometry x="1045" y="524" width="210" height="70" as="geometry" />
        </mxCell>
        <mxCell id="uhG8UHSYETovZm9aPu19-55" value="RefMulty" style="text;html=1;strokeColor=#d6b656;fillColor=#000000;align=center;verticalAlign=middle;whiteSpace=wrap;rounded=0;fontColor=#66FF66;" vertex="1" parent="1">
          <mxGeometry x="646" y="516" width="60" height="30" as="geometry" />
        </mxCell>
        <mxCell id="uhG8UHSYETovZm9aPu19-1" value="RefMulty" style="text;html=1;strokeColor=#d6b656;fillColor=#000000;align=center;verticalAlign=middle;whiteSpace=wrap;rounded=0;fontColor=#66FF66;" vertex="1" parent="1">
          <mxGeometry x="90" y="350" width="60" height="30" as="geometry" />
        </mxCell>
        <mxCell id="uhG8UHSYETovZm9aPu19-56" value="RefSingle" style="text;html=1;strokeColor=#d6b656;fillColor=#000000;align=center;verticalAlign=middle;whiteSpace=wrap;rounded=0;fontColor=#66FF66;" vertex="1" parent="1">
          <mxGeometry x="463" y="464" width="60" height="30" as="geometry" />
        </mxCell>
        <mxCell id="uhG8UHSYETovZm9aPu19-59" value="RefSingleEn" style="text;html=1;strokeColor=#9673a6;fillColor=#4D4D4D;align=center;verticalAlign=middle;whiteSpace=wrap;rounded=0;fontColor=#66FF66;" vertex="1" parent="1">
          <mxGeometry x="617" y="494" width="80" height="30" as="geometry" />
        </mxCell>
        <mxCell id="uhG8UHSYETovZm9aPu19-60" value="" style="endArrow=classic;startArrow=classic;html=1;rounded=0;fontColor=#FFFFFF;exitX=1;exitY=0.5;exitDx=0;exitDy=0;entryX=0;entryY=0.5;entryDx=0;entryDy=0;strokeColor=#999999;dashed=1;" edge="1" parent="1" source="uhG8UHSYETovZm9aPu19-58" target="uhG8UHSYETovZm9aPu19-45">
          <mxGeometry width="50" height="50" relative="1" as="geometry">
            <mxPoint x="600" y="480" as="sourcePoint" />
            <mxPoint x="650" y="430" as="targetPoint" />
          </mxGeometry>
        </mxCell>
        <mxCell id="uhG8UHSYETovZm9aPu19-61" value="" style="endArrow=classic;startArrow=classic;html=1;rounded=0;fontColor=#FFFFFF;exitX=1;exitY=0.5;exitDx=0;exitDy=0;strokeColor=#999999;dashed=1;" edge="1" parent="1" source="uhG8UHSYETovZm9aPu19-59">
          <mxGeometry width="50" height="50" relative="1" as="geometry">
            <mxPoint x="600" y="480" as="sourcePoint" />
            <mxPoint x="880" y="480" as="targetPoint" />
          </mxGeometry>
        </mxCell>
        <mxCell id="uhG8UHSYETovZm9aPu19-58" value="RefMultyEn" style="text;html=1;strokeColor=#9673a6;fillColor=#4D4D4D;align=center;verticalAlign=middle;whiteSpace=wrap;rounded=0;fontColor=#66FF66;" vertex="1" parent="1">
          <mxGeometry x="433" y="442" width="80" height="30" as="geometry" />
        </mxCell>
      </root>
    </mxGraphModel>
  </diagram>
</mxfile>
